# xmcd
#
# Track frame offsets:
#	150
#	29987
#	59446
#	78526
#	100915
#	118539
#	138511
#	158239
#	180900
#	199514
#	223101
#	247225
#	266723
#	289084
#	313194
#
# Disc length: 4438 seconds
#
# Revision: 0
# Processed by: cddbd v1.4PL0 Copyright (c) Steve Scherf et al.
# Submitted via: EZCDDA 4.3.3.2
#
DISCID=e811540f
DTITLE=Chris Rea - The best Of
DYEAR=1900
DGENRE=
TTITLE0=The Road To Hell
TTITLE1=Auberge
TTITLE2=Soft Top, Hard Shoulder
TTITLE3=Texas
TTITLE4=Julia
TTITLE5=Josephine
TTITLE6=That's What They Always Say
TTITLE7=Stop
TTITLE8=Heaven
TTITLE9=God's Great Banana Skin
TTITLE10=Red
TTITLE11=Working On It
TTITLE12=Looking For The Summer
TTITLE13=And You My Love
TTITLE14=If You Were Me
EXTD=
EXTT0=
EXTT1=
EXTT2=
EXTT3=
EXTT4=
EXTT5=
EXTT6=
EXTT7=
EXTT8=
EXTT9=
EXTT10=
EXTT11=
EXTT12=
EXTT13=
EXTT14=
PLAYORDER=
